<svg width="21" height="21" viewBox="0 0 21 21" fill="none" xmlns="http://www.w3.org/2000/svg">
<path d="M12.8259 5.84188H15.1614V8.17863C15.1614 8.82124 15.6868 9.347 16.3291 9.347C16.9713 9.347 17.4968 8.82124 17.4968 8.17863V5.84188H19.8323C20.4745 5.84188 21 5.31611 21 4.6735C21 4.0309 20.4745 3.50513 19.8323 3.50513H17.4968V1.16838C17.4968 0.525769 16.9713 0 16.3291 0C15.6868 0 15.1614 0.525769 15.1614 1.16838V3.50513H12.8259C12.1837 3.50513 11.6582 4.0309 11.6582 4.6735C11.6582 5.31611 12.1837 5.84188 12.8259 5.84188ZM18.9098 14.336L15.9437 13.9971C15.2314 13.9154 14.5308 14.1607 14.0287 14.6631L11.8801 16.8129C8.5754 15.1305 5.86627 12.4315 4.18475 9.11333L6.34504 6.95183C6.84716 6.44943 7.09239 5.73672 7.01065 5.0357L6.672 2.09139C6.54355 0.911333 5.53931 0.0116837 4.35991 0.0116837H2.33974C1.02021 0.0116837 -0.0774512 1.10996 0.00428962 2.43022C0.623184 12.4081 8.59875 20.3765 18.5595 20.9957C19.879 21.0775 20.9766 19.9792 20.9766 18.659V16.6377C20.9883 15.4693 20.0892 14.4645 18.9098 14.336Z" fill="black"/>
</svg>
