<svg width="144" height="62" viewBox="0 0 144 62" fill="none" xmlns="http://www.w3.org/2000/svg">
<path d="M22.1545 0V10.3951H11.0832V20.7784H0V0H22.1545Z" fill="#8EED06"/>
<path d="M11.0832 30.0049H0V61.1666H11.0832V30.0049Z" fill="#8EED06"/>
<path d="M33.2347 30.0049V61.1666H11.0831V50.7833H22.1544V30.0049H33.2347Z" fill="#27AFD6"/>
<path d="M33.2376 0H22.1544V20.7784H33.2376V0Z" fill="#27AFD6"/>
<path d="M65.2059 24.5894C64.6068 24.5894 64.0433 24.4708 63.5184 24.2306C62.9905 23.9933 62.5278 23.6641 62.1304 23.243C61.733 22.8218 61.4186 22.3354 61.1932 21.7779C60.9678 21.2203 60.8551 20.6271 60.8551 19.9925C60.8551 19.3578 60.9678 18.7646 61.1932 18.21C61.4186 17.6524 61.73 17.166 62.1304 16.7449C62.5278 16.3238 62.9905 15.9975 63.5184 15.7573C64.0463 15.52 64.6068 15.3984 65.2059 15.3984C65.9236 15.3984 66.5821 15.5645 67.1841 15.8997C67.7862 16.2318 68.2874 16.6767 68.6818 17.2283L67.5133 17.8541C67.2375 17.5071 66.8994 17.2313 66.496 17.0267C66.0927 16.822 65.6597 16.7153 65.2059 16.7153C64.7848 16.7153 64.3903 16.8013 64.0226 16.9733C63.6548 17.1453 63.3315 17.3826 63.0557 17.6821C62.7769 17.9816 62.5604 18.3286 62.4032 18.7261C62.2461 19.1235 62.1689 19.5446 62.1689 19.9925C62.1689 20.4403 62.2461 20.8674 62.4032 21.2618C62.5575 21.6563 62.7769 22.0033 63.0587 22.3058C63.3404 22.6083 63.6637 22.8426 64.0285 23.0146C64.3933 23.1866 64.7877 23.2697 65.2059 23.2697C65.6686 23.2697 66.1046 23.1659 66.5049 22.9553C66.9053 22.7447 67.2434 22.4689 67.5133 22.1249L68.6818 22.7625C68.2844 23.3141 67.7862 23.7561 67.1841 24.0882C66.5821 24.4204 65.9207 24.5835 65.2059 24.5835V24.5894Z" fill="black"/>
<path d="M72.3683 24.5895C71.787 24.5895 71.2562 24.4382 70.7787 24.1416C70.3012 23.845 69.9186 23.4417 69.6339 22.9375C69.3491 22.4333 69.2068 21.8758 69.2068 21.2648C69.2068 20.8021 69.2898 20.3662 69.453 19.9658C69.6161 19.5624 69.8444 19.2095 70.1321 18.904C70.4198 18.5986 70.7579 18.3583 71.1405 18.1863C71.5231 18.0143 71.9324 17.9283 72.3683 17.9283C72.8547 17.9283 73.2966 18.0291 73.7029 18.2278C74.1063 18.4265 74.4533 18.7053 74.741 19.0553C75.0286 19.4082 75.2392 19.8116 75.3727 20.2683C75.5061 20.725 75.5477 21.2114 75.4913 21.7245H70.6155C70.6689 22.0152 70.7757 22.2791 70.9359 22.5134C71.093 22.7477 71.2977 22.9316 71.5438 23.068C71.79 23.2044 72.0658 23.2726 72.3683 23.2756C72.6886 23.2756 72.9793 23.1955 73.2432 23.0354C73.5072 22.8752 73.7237 22.6528 73.8927 22.371L75.2274 22.6825C74.9753 23.243 74.5927 23.7027 74.0826 24.0586C73.5724 24.4145 73 24.5924 72.3683 24.5924V24.5895ZM70.5711 20.7191H74.1626C74.1211 20.4166 74.0143 20.1408 73.8423 19.8946C73.6703 19.6484 73.4597 19.4527 73.2047 19.3074C72.9496 19.1621 72.6708 19.0879 72.3654 19.0879C72.0599 19.0879 71.79 19.1591 71.532 19.3044C71.2769 19.4468 71.0663 19.6425 70.9003 19.8887C70.7342 20.1348 70.6215 20.4136 70.5681 20.7191H70.5711Z" fill="black"/>
<path d="M82.2356 20.461V24.4263H80.9187V20.7813C80.9187 20.4996 80.8505 20.2416 80.7141 20.0102C80.5777 19.7789 80.3938 19.595 80.1654 19.4556C79.9341 19.3192 79.6761 19.251 79.3914 19.251C79.1066 19.251 78.8575 19.3192 78.6262 19.4556C78.3948 19.592 78.208 19.7759 78.0686 20.0102C77.9292 20.2416 77.861 20.4996 77.861 20.7813V24.4263H76.5442V18.1003H77.861V18.7705C78.0805 18.5095 78.3504 18.3019 78.6707 18.1507C78.991 17.9994 79.338 17.9223 79.7087 17.9223C80.1773 17.9223 80.6014 18.035 80.9869 18.2634C81.3695 18.4917 81.675 18.7972 81.9004 19.1798C82.1258 19.5624 82.2385 19.9895 82.2385 20.4581L82.2356 20.461Z" fill="black"/>
<path d="M86.8384 19.4171H85.5097L85.5038 24.4263H84.187L84.1929 19.4171H83.1875V18.1002H84.1929L84.187 16.1132H85.5038L85.5097 18.1002H86.8384V19.4171Z" fill="black"/>
<path d="M87.9714 24.4263V18.1003H89.2882V18.7705C89.5077 18.5095 89.7776 18.3019 90.0979 18.1507C90.4182 17.9994 90.7652 17.9223 91.1359 17.9223C91.3732 17.9223 91.6045 17.9549 91.8388 18.0172L91.3139 19.3459C91.1478 19.2836 90.9847 19.251 90.8216 19.251C90.5428 19.251 90.2877 19.3192 90.0564 19.4556C89.8251 19.592 89.6382 19.7759 89.4988 20.0102C89.3594 20.2416 89.2912 20.4996 89.2912 20.7813V24.4263H87.9744H87.9714Z" fill="black"/>
<path d="M95.0419 24.5895C94.4606 24.5895 93.9297 24.4382 93.4522 24.1416C92.9747 23.845 92.5922 23.4417 92.3074 22.9375C92.0227 22.4333 91.8804 21.8758 91.8804 21.2648C91.8804 20.8021 91.9634 20.3662 92.1265 19.9658C92.2896 19.5624 92.518 19.2095 92.8057 18.904C93.0934 18.5986 93.4315 18.3583 93.8141 18.1863C94.1967 18.0143 94.6059 17.9283 95.0419 17.9283C95.6232 17.9283 96.1541 18.0795 96.6316 18.3761C97.1091 18.6757 97.4917 19.079 97.7764 19.5832C98.0611 20.0903 98.2034 20.6509 98.2034 21.2648C98.2034 21.7245 98.1204 22.1545 97.9573 22.5549C97.7942 22.9553 97.5658 23.3082 97.2781 23.6137C96.9904 23.9192 96.6523 24.1594 96.2727 24.3314C95.8901 24.5035 95.4808 24.5895 95.0419 24.5895ZM95.0419 23.2756C95.3919 23.2756 95.7062 23.1837 95.985 22.9968C96.2638 22.81 96.4833 22.5668 96.6464 22.2613C96.8095 21.9558 96.8896 21.6237 96.8896 21.2648C96.8896 20.9059 96.8066 20.5619 96.6405 20.2535C96.4744 19.945 96.2519 19.6989 95.9732 19.518C95.6944 19.3341 95.3859 19.2421 95.0449 19.2421C94.7038 19.2421 94.3865 19.3341 94.1047 19.5209C93.8259 19.7078 93.6035 19.9539 93.4404 20.2624C93.2773 20.5708 93.1972 20.9059 93.1972 21.2678C93.1972 21.6296 93.2802 21.9825 93.4493 22.285C93.6183 22.5875 93.8408 22.8307 94.1225 23.0087C94.4013 23.1866 94.7097 23.2786 95.0419 23.2786V23.2756Z" fill="black"/>
<path d="M102.379 24.4263L104.093 15.5704H105.155L107.427 21.5346L109.684 15.5704H110.746L112.466 24.4263H111.125L109.98 18.5006L107.863 24.0912H106.976L104.864 18.5006L103.72 24.4263H102.379Z" fill="black"/>
<path d="M116.155 24.5894C115.574 24.5894 115.043 24.4382 114.566 24.1416C114.088 23.845 113.706 23.4417 113.421 22.9375C113.136 22.4333 112.994 21.8757 112.994 21.2648C112.994 20.8021 113.077 20.3661 113.24 19.9657C113.403 19.5624 113.631 19.2095 113.919 18.904C114.207 18.5985 114.545 18.3583 114.927 18.1863C115.31 18.0143 115.719 17.9282 116.155 17.9282C116.642 17.9282 117.084 18.0291 117.49 18.2278C117.893 18.4265 118.24 18.7053 118.528 19.0553C118.816 19.4082 119.026 19.8115 119.16 20.2683C119.293 20.725 119.335 21.2114 119.278 21.7245H114.403C114.456 22.0151 114.563 22.2791 114.723 22.5134C114.88 22.7477 115.085 22.9315 115.331 23.068C115.577 23.2044 115.853 23.2726 116.155 23.2756C116.476 23.2756 116.766 23.1955 117.03 23.0353C117.294 22.8752 117.511 22.6528 117.68 22.371L119.014 22.6824C118.762 23.243 118.38 23.7027 117.87 24.0585C117.359 24.4144 116.787 24.5924 116.155 24.5924V24.5894ZM114.361 20.7191H117.953C117.911 20.4166 117.804 20.1407 117.632 19.8946C117.46 19.6484 117.25 19.4527 116.995 19.3073C116.74 19.162 116.461 19.0879 116.155 19.0879C115.85 19.0879 115.58 19.1591 115.322 19.3044C115.067 19.4467 114.856 19.6425 114.69 19.8886C114.524 20.1348 114.411 20.4136 114.358 20.7191H114.361ZM115.808 17.4063L116.315 15.5853H117.632L116.695 17.4063H115.808Z" fill="black"/>
<path d="M125.246 14.9387H126.562V24.4263H125.246V23.495C125.038 23.8242 124.768 24.0882 124.436 24.2899C124.104 24.4915 123.712 24.5894 123.264 24.5894C122.817 24.5894 122.375 24.5034 121.974 24.3314C121.574 24.1594 121.221 23.9192 120.915 23.6137C120.61 23.3082 120.37 22.9553 120.198 22.5549C120.026 22.1545 119.94 21.7245 119.94 21.2648C119.94 20.8051 120.026 20.375 120.198 19.9717C120.37 19.5683 120.61 19.2154 120.915 18.9099C121.221 18.6044 121.574 18.3642 121.974 18.1922C122.375 18.0202 122.805 17.9342 123.264 17.9342C123.724 17.9342 124.101 18.035 124.436 18.2337C124.768 18.4324 125.038 18.6964 125.246 19.0226V14.9417V14.9387ZM123.279 23.3201C123.65 23.3201 123.976 23.2281 124.255 23.0442C124.534 22.8604 124.75 22.6142 124.904 22.2998C125.059 21.9855 125.136 21.6414 125.136 21.2618C125.136 20.8822 125.059 20.5292 124.901 20.2178C124.744 19.9064 124.528 19.6573 124.252 19.4734C123.976 19.2895 123.653 19.1976 123.282 19.1976C122.911 19.1976 122.582 19.2895 122.28 19.4764C121.977 19.6632 121.737 19.9094 121.559 20.2238C121.381 20.5352 121.289 20.8822 121.289 21.2618C121.289 21.6414 121.381 21.9914 121.565 22.3028C121.749 22.6112 121.992 22.8604 122.292 23.0413C122.591 23.2222 122.923 23.3171 123.282 23.3171L123.279 23.3201Z" fill="black"/>
<path d="M128.751 17.1838C128.549 17.1838 128.38 17.1186 128.244 16.9881C128.107 16.8576 128.042 16.6915 128.042 16.4957C128.042 16.3 128.11 16.1369 128.244 16.0064C128.377 15.8759 128.546 15.8077 128.745 15.8077C128.944 15.8077 129.104 15.8729 129.237 16.0064C129.371 16.1399 129.439 16.303 129.439 16.4957C129.439 16.6885 129.374 16.8576 129.24 16.9881C129.107 17.1186 128.944 17.1838 128.751 17.1838ZM128.078 18.1002H129.395V24.4263H128.078V18.1002Z" fill="black"/>
<path d="M134.929 22.6291L136.106 23.2667C135.819 23.6671 135.457 23.9874 135.015 24.2276C134.573 24.4679 134.095 24.5895 133.582 24.5895C133.001 24.5895 132.47 24.4382 131.993 24.1416C131.515 23.8421 131.133 23.4417 130.848 22.9375C130.563 22.4333 130.421 21.8758 130.421 21.2648C130.421 20.8021 130.504 20.3662 130.667 19.9658C130.83 19.5624 131.058 19.2095 131.346 18.904C131.634 18.5986 131.972 18.3583 132.354 18.1863C132.737 18.0143 133.146 17.9283 133.582 17.9283C134.095 17.9283 134.573 18.0469 135.015 18.2901C135.457 18.5303 135.819 18.8536 136.106 19.257L134.929 19.8946C134.751 19.684 134.546 19.5239 134.309 19.4112C134.072 19.2985 133.831 19.2421 133.582 19.2421C133.235 19.2421 132.924 19.337 132.642 19.5239C132.363 19.7107 132.141 19.9569 131.978 20.2624C131.815 20.5678 131.735 20.903 131.735 21.2648C131.735 21.6266 131.818 21.9558 131.981 22.2613C132.144 22.5668 132.366 22.8129 132.648 22.9968C132.927 23.1837 133.238 23.2756 133.582 23.2756C133.843 23.2756 134.092 23.2163 134.33 23.0977C134.567 22.979 134.766 22.8218 134.932 22.6291H134.929Z" fill="black"/>
<path d="M139.876 24.5895C139.294 24.5895 138.764 24.4382 138.286 24.1416C137.809 23.8421 137.426 23.4417 137.141 22.9375C136.857 22.4333 136.714 21.8758 136.714 21.2648C136.714 20.8021 136.797 20.3662 136.96 19.9658C137.124 19.5624 137.352 19.2095 137.64 18.904C137.927 18.5986 138.265 18.3583 138.648 18.1863C139.031 18.0143 139.44 17.9283 139.876 17.9283C140.457 17.9283 140.988 18.0795 141.465 18.3761C141.943 18.6757 142.326 19.079 142.61 19.5832C142.895 20.0903 143.037 20.6509 143.037 21.2648C143.037 21.7245 142.954 22.1545 142.791 22.5549C142.628 22.9553 142.4 23.3082 142.112 23.6137C141.824 23.9192 141.486 24.1594 141.107 24.3314C140.724 24.5035 140.315 24.5895 139.876 24.5895ZM139.876 23.2756C140.226 23.2756 140.54 23.1837 140.819 22.9968C141.098 22.81 141.317 22.5668 141.48 22.2613C141.643 21.9558 141.723 21.6237 141.723 21.2648C141.723 20.9059 141.64 20.5619 141.474 20.2535C141.308 19.945 141.086 19.6989 140.807 19.518C140.528 19.3341 140.22 19.2421 139.879 19.2421C139.538 19.2421 139.22 19.3341 138.939 19.5209C138.66 19.7078 138.437 19.9539 138.274 20.2624C138.111 20.5708 138.031 20.9059 138.031 21.2678C138.031 21.6296 138.114 21.9825 138.283 22.285C138.452 22.5875 138.675 22.8307 138.956 23.0087C139.235 23.1866 139.544 23.2786 139.876 23.2786V23.2756Z" fill="black"/>
<path d="M67.8574 45.5161H63.4917L60.7513 33.2881H64.3459L66.2173 41.6398L70.4109 33.2881H74.0173L67.8544 45.5161H67.8574Z" fill="black"/>
<path d="M75.7821 33.2881H79.1571L77.4459 45.5161H74.0708L75.7821 33.2881ZM77.7009 31.8823C77.2027 31.8823 76.8112 31.7192 76.5265 31.393C76.2418 31.0667 76.132 30.6634 76.1973 30.1829C76.2625 29.7025 76.485 29.2991 76.8646 28.9729C77.2442 28.6466 77.6772 28.4835 78.1666 28.4835C78.6559 28.4835 79.0177 28.6466 79.3054 28.9729C79.5901 29.2991 79.6999 29.7025 79.6346 30.1829C79.5605 30.6634 79.341 31.0667 78.9733 31.393C78.6055 31.7192 78.1814 31.8823 77.7009 31.8823Z" fill="black"/>
<path d="M92.7078 37.7398L91.6312 45.5161H88.2561L89.223 38.668C89.2793 38.235 89.2289 37.8465 89.0687 37.4995C88.9086 37.1525 88.6713 36.8767 88.354 36.675C88.0367 36.4734 87.66 36.3696 87.23 36.3696C86.7999 36.3696 86.4055 36.4704 86.0318 36.675C85.6581 36.8797 85.3437 37.1555 85.0916 37.4995C84.8395 37.8465 84.6853 38.235 84.626 38.668L83.6591 45.5161H80.2841L81.9835 33.2881H85.3585L85.2369 34.1927C85.7085 33.8012 86.2364 33.4957 86.8147 33.2762C87.3931 33.0568 87.9892 32.947 88.6002 32.947C89.4899 32.947 90.264 33.1635 90.9224 33.5965C91.5837 34.0295 92.079 34.6049 92.4082 35.3256C92.7374 36.0463 92.8383 36.853 92.7078 37.7398ZM89.9555 32.1018C89.6471 32.1018 89.2941 31.992 88.9027 31.7726C88.5112 31.5531 88.1256 31.3129 87.7401 31.0519C87.3575 30.7909 87.0223 30.5833 86.7376 30.4291C86.4529 30.2748 86.269 30.2571 86.186 30.3816C86.0881 30.521 86.0318 30.6634 86.0199 30.8146C86.008 30.9659 86.0199 31.1676 86.0496 31.4196L84.0565 31.9446C83.9172 31.2595 83.9379 30.6367 84.1188 30.0791C84.2997 29.5215 84.6112 29.0796 85.056 28.7534C85.5009 28.4272 86.0436 28.264 86.6872 28.264C86.9808 28.264 87.313 28.353 87.6837 28.528C88.0544 28.703 88.4192 28.9047 88.7781 29.133C89.137 29.3614 89.4543 29.5631 89.7331 29.738C90.0119 29.913 90.1987 30.002 90.2966 30.002C90.4597 30.002 90.5635 29.9516 90.608 29.8478C90.6525 29.7469 90.6673 29.6164 90.6495 29.4563C90.6347 29.2961 90.605 29.1449 90.5635 28.9966L92.6188 28.3619C92.7582 29.0885 92.7256 29.7321 92.5209 30.2926C92.3163 30.8561 91.9901 31.2981 91.5422 31.6184C91.0944 31.9416 90.5635 32.1018 89.9526 32.1018H89.9555Z" fill="black"/>
<path d="M104.521 33.2881H107.896L106.184 45.5161H102.797L102.809 44.2438C102.427 44.7153 101.967 45.1009 101.427 45.3915C100.89 45.6851 100.285 45.8334 99.6181 45.8334C98.7047 45.8334 97.8743 45.6614 97.1298 45.3204C96.3825 44.9793 95.7537 44.5048 95.2406 43.9027C94.7275 43.3006 94.3568 42.6007 94.1284 41.8059C93.9001 41.0111 93.8497 40.1569 93.9802 39.2434C94.1018 38.3715 94.3776 37.5559 94.8047 36.7967C95.2317 36.0374 95.7715 35.3701 96.424 34.7918C97.0765 34.2135 97.8031 33.7597 98.6068 33.4334C99.4105 33.1072 100.247 32.9441 101.119 32.9441C101.869 32.9441 102.522 33.1042 103.076 33.4216C103.631 33.7389 104.099 34.1423 104.482 34.6316L104.518 33.2852L104.521 33.2881ZM99.9711 42.5948C100.535 42.5948 101.06 42.4524 101.549 42.1677C102.038 41.883 102.448 41.4974 102.777 41.0111C103.106 40.5247 103.314 39.9908 103.394 39.4036C103.474 38.8075 103.417 38.2707 103.222 37.7902C103.026 37.3097 102.723 36.9272 102.317 36.6424C101.911 36.3577 101.427 36.2154 100.873 36.2154C100.318 36.2154 99.7813 36.3577 99.283 36.6424C98.7847 36.9272 98.3695 37.3127 98.0344 37.7991C97.6993 38.2855 97.4917 38.8193 97.4116 39.4066C97.3315 39.9938 97.3908 40.5306 97.5955 41.014C97.8001 41.5004 98.1085 41.883 98.5238 42.1707C98.939 42.4554 99.4194 42.5978 99.9651 42.5978L99.9711 42.5948Z" fill="black"/>
<path d="M111.122 51.6315H107.747L110.328 33.2881H113.703L113.519 34.6079C113.975 34.1274 114.494 33.7329 115.079 33.4275C115.663 33.122 116.313 32.9678 117.03 32.9678C117.92 32.9678 118.727 33.1339 119.456 33.469C120.186 33.8041 120.806 34.2668 121.316 34.857C121.826 35.4472 122.191 36.1293 122.41 36.9064C122.63 37.6804 122.68 38.5108 122.558 39.4006C122.437 40.2903 122.152 41.1237 121.707 41.9067C121.262 42.6896 120.705 43.3748 120.032 43.9679C119.358 44.5581 118.611 45.0208 117.787 45.3559C116.962 45.691 116.108 45.8571 115.218 45.8571C114.5 45.8571 113.892 45.7029 113.397 45.3915C112.899 45.083 112.493 44.6916 112.175 44.217L111.122 51.6286V51.6315ZM116.517 36.2094C115.971 36.2094 115.455 36.3547 114.969 36.6424C114.483 36.933 114.079 37.3156 113.753 37.7991C113.427 38.2825 113.222 38.8134 113.142 39.4006C113.062 39.9878 113.112 40.5246 113.302 41.008C113.489 41.4944 113.786 41.877 114.189 42.1647C114.592 42.4494 115.07 42.5918 115.624 42.5918C116.179 42.5918 116.707 42.4494 117.208 42.1647C117.709 41.88 118.131 41.4974 118.475 41.0169C118.816 40.5365 119.029 39.9967 119.109 39.4036C119.192 38.8252 119.13 38.2943 118.925 37.808C118.721 37.3216 118.409 36.936 117.988 36.6454C117.567 36.3577 117.078 36.2124 116.514 36.2124L116.517 36.2094Z" fill="black"/>
<path d="M123.573 45.5161L125.284 33.2881H128.659L128.526 34.1927C128.997 33.8012 129.525 33.4957 130.104 33.2762C130.682 33.0568 131.278 32.947 131.889 32.947C132.719 32.947 133.455 33.1398 134.096 33.5224C134.736 33.905 135.225 34.4151 135.57 35.0498C136.092 34.4151 136.726 33.905 137.471 33.5224C138.218 33.1398 139.001 32.947 139.825 32.947C140.715 32.947 141.489 33.1635 142.148 33.5965C142.809 34.0295 143.304 34.6049 143.639 35.3256C143.975 36.0463 144.075 36.853 143.945 37.7397L142.856 45.5161H139.481L140.448 38.668C140.505 38.2439 140.454 37.8584 140.294 37.5114C140.134 37.1644 139.897 36.8886 139.579 36.681C139.262 36.4734 138.891 36.3695 138.467 36.3695C138.043 36.3695 137.654 36.4704 137.281 36.675C136.907 36.8797 136.593 37.1555 136.341 37.4995C136.089 37.8465 135.928 38.235 135.863 38.668L134.896 45.5161H131.521L132.488 38.668C132.553 38.235 132.506 37.8465 132.349 37.4995C132.189 37.1525 131.948 36.8767 131.628 36.675C131.308 36.4733 130.934 36.3695 130.51 36.3695C130.086 36.3695 129.697 36.4734 129.324 36.681C128.947 36.8886 128.635 37.1673 128.383 37.5114C128.131 37.8584 127.977 38.2439 127.918 38.668L126.951 45.5161H123.576H123.573Z" fill="black"/>
</svg>
