<svg width="21" height="20" viewBox="0 0 21 20" fill="none" xmlns="http://www.w3.org/2000/svg">
<path d="M10.0142 -0.00109863C4.49116 -0.00109863 0.0141602 4.4759 0.0141602 9.9989C0.0141602 15.5219 4.49116 19.9989 10.0142 19.9989C15.5372 19.9989 20.0142 15.5219 20.0142 9.9989C20.0142 4.4759 15.5372 -0.00109863 10.0142 -0.00109863ZM13.7022 5.06091C14.4832 4.80091 15.2122 5.52991 14.9522 6.31091L12.9522 12.3109C12.8522 12.6099 12.6252 12.8369 12.3262 12.9369C11.5762 13.1869 7.07716 14.6859 6.32616 14.9369C5.54516 15.1969 4.81616 14.4679 5.07616 13.6869L7.07616 7.68689C7.17616 7.38789 7.40316 7.16091 7.70216 7.06091L13.7022 5.06091ZM10.0142 8.9989C9.46216 8.9989 9.01416 9.4469 9.01416 9.9989C9.01416 10.5509 9.46216 10.9989 10.0142 10.9989C10.5662 10.9989 11.0142 10.5509 11.0142 9.9989C11.0142 9.4469 10.5662 8.9989 10.0142 8.9989Z" fill="#191D1E"/>
</svg>
